<svg width="200" height="200" viewBox="0 0 230 60" fill="none" xmlns="http://www.w3.org/2000/svg">
    <path d="M0.367371 47L8.09464 0.45459H19.2083L16.3219 18.0682H16.5492C17.1553 17.0076 17.9583 15.9849 18.9583 15C19.9734 14.0152 21.1931 13.2122 22.6174 12.591C24.0416 11.9546 25.6704 11.6364 27.5037 11.6364C29.928 11.6364 32.0871 12.2728 33.981 13.5455C35.8749 14.8182 37.2537 16.7803 38.1174 19.4319C38.981 22.0834 39.0719 25.4622 38.3901 29.5682C37.7386 33.5228 36.5643 36.8334 34.8674 39.5C33.1704 42.1667 31.1477 44.1667 28.7992 45.5C26.4659 46.8334 24.0113 47.5 21.4356 47.5C19.678 47.5 18.2007 47.2122 17.0037 46.6364C15.8219 46.0607 14.8749 45.3031 14.1628 44.3637C13.4659 43.4243 12.981 42.4167 12.7083 41.341H12.2765L11.3674 47H0.367371ZM14.1628 29.5455C13.8598 31.4243 13.8446 33.0607 14.1174 34.4546C14.4053 35.8485 14.9583 36.9319 15.7765 37.7046C16.6098 38.4622 17.7083 38.841 19.0719 38.841C20.4356 38.841 21.6553 38.4622 22.731 37.7046C23.8068 36.9319 24.7083 35.8485 25.4356 34.4546C26.1628 33.0607 26.678 31.4243 26.981 29.5455C27.284 27.6667 27.2992 26.0379 27.0265 24.6591C26.7689 23.2803 26.231 22.2122 25.4128 21.4546C24.5946 20.697 23.4962 20.3182 22.1174 20.3182C20.7537 20.3182 19.5265 20.6894 18.4356 21.4319C17.3598 22.1743 16.4507 23.2349 15.7083 24.6137C14.981 25.9925 14.4659 27.6364 14.1628 29.5455Z" fill="#080E07"/>
    <path d="M59.6076 31.9319L62.9258 12.091H74.0167L68.1985 47H57.6076L58.6758 40.5H58.3121C57.2364 42.6364 55.6531 44.3334 53.5621 45.591C51.4712 46.8334 49.1152 47.4546 46.494 47.4546C44.1152 47.4546 42.1152 46.9091 40.494 45.8182C38.8727 44.7273 37.7212 43.2046 37.0394 41.25C36.3727 39.2803 36.2515 36.9773 36.6758 34.341L40.4031 12.091H51.5167L48.1758 32.1591C47.8879 34.0531 48.1379 35.5455 48.9258 36.6364C49.7288 37.7273 50.9864 38.2728 52.6985 38.2728C53.8046 38.2728 54.8424 38.0304 55.8121 37.5455C56.7818 37.0455 57.6 36.3258 58.2667 35.3864C58.9485 34.4319 59.3955 33.2803 59.6076 31.9319Z" fill="#080E07"/>
    <path d="M81.2569 47.5C78.6812 47.5 76.4463 46.8334 74.5524 45.5C72.6584 44.1667 71.3024 42.1667 70.4842 39.5C69.6812 36.8334 69.6054 33.5228 70.2569 29.5682C70.9387 25.4622 72.1509 22.0834 73.8933 19.4319C75.6357 16.7803 77.666 14.8182 79.9842 13.5455C82.3175 12.2728 84.6963 11.6364 87.1206 11.6364C88.9539 11.6364 90.469 11.9546 91.666 12.591C92.8781 13.2122 93.8251 14.0152 94.5069 15C95.1887 15.9849 95.6584 17.0076 95.916 18.0682H96.166L99.0978 0.45459H110.211L102.484 47H91.4842L92.416 41.341H92.0751C91.4236 42.4167 90.5902 43.4243 89.5751 44.3637C88.5599 45.3031 87.3554 46.0607 85.9615 46.6364C84.5827 47.2122 83.0145 47.5 81.2569 47.5ZM86.5069 38.841C87.8554 38.841 89.0751 38.4622 90.166 37.7046C91.2569 36.9319 92.1736 35.8485 92.916 34.4546C93.6736 33.0607 94.2039 31.4243 94.5069 29.5455C94.8251 27.6364 94.8402 25.9925 94.5524 24.6137C94.2645 23.2349 93.6963 22.1743 92.8478 21.4319C92.0145 20.6894 90.916 20.3182 89.5524 20.3182C88.1887 20.3182 86.969 20.697 85.8933 21.4546C84.8175 22.2122 83.9236 23.2803 83.2115 24.6591C82.4993 26.0379 81.9842 27.6667 81.666 29.5455C81.363 31.4243 81.3327 33.0607 81.5751 34.4546C81.8327 35.8485 82.3705 36.9319 83.1887 37.7046C84.0221 38.4622 85.1281 38.841 86.5069 38.841Z" fill="#080E07"/>
    <path d="M115.537 47.5C112.961 47.5 110.726 46.8334 108.832 45.5C106.938 44.1667 105.582 42.1667 104.764 39.5C103.961 36.8334 103.885 33.5228 104.537 29.5682C105.219 25.4622 106.431 22.0834 108.173 19.4319C109.916 16.7803 111.946 14.8182 114.264 13.5455C116.598 12.2728 118.976 11.6364 121.401 11.6364C123.234 11.6364 124.749 11.9546 125.946 12.591C127.158 13.2122 128.105 14.0152 128.787 15C129.469 15.9849 129.938 17.0076 130.196 18.0682H130.446L133.378 0.45459H144.491L136.764 47H125.764L126.696 41.341H126.355C125.704 42.4167 124.87 43.4243 123.855 44.3637C122.84 45.3031 121.635 46.0607 120.241 46.6364C118.863 47.2122 117.294 47.5 115.537 47.5ZM120.787 38.841C122.135 38.841 123.355 38.4622 124.446 37.7046C125.537 36.9319 126.454 35.8485 127.196 34.4546C127.954 33.0607 128.484 31.4243 128.787 29.5455C129.105 27.6364 129.12 25.9925 128.832 24.6137C128.545 23.2349 127.976 22.1743 127.128 21.4319C126.294 20.6894 125.196 20.3182 123.832 20.3182C122.469 20.3182 121.249 20.697 120.173 21.4546C119.098 22.2122 118.204 23.2803 117.491 24.6591C116.779 26.0379 116.264 27.6667 115.946 29.5455C115.643 31.4243 115.613 33.0607 115.855 34.4546C116.113 35.8485 116.651 36.9319 117.469 37.7046C118.302 38.4622 119.408 38.841 120.787 38.841Z" fill="#080E07"/>
    <path d="M151.203 60.8182C147.87 60.8182 145.097 60.3561 142.885 59.4319C140.673 58.5076 139.021 57.2425 137.931 55.6364C136.84 54.0303 136.317 52.2122 136.362 50.1819L146.999 49.591C147.09 50.3182 147.355 50.947 147.794 51.4773C148.234 52.0076 148.862 52.4091 149.681 52.6819C150.499 52.9697 151.514 53.1137 152.726 53.1137C154.59 53.1137 156.211 52.6591 157.59 51.75C158.968 50.841 159.817 49.2728 160.135 47.0455L161.158 40.9091H160.771C160.165 41.9849 159.347 42.947 158.317 43.7955C157.287 44.644 156.067 45.3107 154.658 45.7955C153.249 46.2804 151.688 46.5228 149.976 46.5228C147.415 46.5228 145.181 45.9319 143.271 44.75C141.362 43.5531 139.984 41.7046 139.135 39.2046C138.287 36.6894 138.188 33.4546 138.84 29.5C139.521 25.4243 140.734 22.0682 142.476 19.4319C144.218 16.7803 146.249 14.8182 148.567 13.5455C150.9 12.2728 153.287 11.6364 155.726 11.6364C157.559 11.6364 159.074 11.9546 160.271 12.591C161.468 13.2122 162.408 14.0152 163.09 15C163.771 15.9849 164.256 17.0076 164.544 18.0682H164.862L165.84 12.091H176.908L171.09 47.1364C170.62 50.1061 169.476 52.6061 167.658 54.6364C165.84 56.6667 163.514 58.2046 160.681 59.25C157.847 60.2955 154.688 60.8182 151.203 60.8182ZM155.112 38.4319C156.461 38.4319 157.681 38.0758 158.771 37.3637C159.862 36.6516 160.779 35.6288 161.521 34.2955C162.264 32.9622 162.787 31.3637 163.09 29.5C163.393 27.6061 163.393 25.9773 163.09 24.6137C162.802 23.2349 162.241 22.1743 161.408 21.4319C160.574 20.6894 159.476 20.3182 158.112 20.3182C156.734 20.3182 155.506 20.697 154.431 21.4546C153.37 22.2122 152.476 23.2803 151.749 24.6591C151.037 26.0228 150.537 27.6364 150.249 29.5C149.946 31.3637 149.923 32.9622 150.181 34.2955C150.453 35.6288 150.999 36.6516 151.817 37.3637C152.65 38.0758 153.749 38.4319 155.112 38.4319Z" fill="#080E07"/>
    <path d="M176.114 60.091C174.781 60.091 173.538 59.9849 172.387 59.7728C171.25 59.5758 170.281 59.3107 169.478 58.9773L173.296 50.9091C174.311 51.2728 175.243 51.4773 176.091 51.5228C176.955 51.5834 177.728 51.4394 178.409 51.091C179.106 50.7576 179.712 50.1591 180.228 49.2955L180.864 48.2273L174.478 12.091H185.705L187.978 37.0228H188.341L199.023 12.091H211.137L191.659 50.341C190.675 52.25 189.485 53.9394 188.091 55.4091C186.697 56.8788 185.015 58.0228 183.046 58.841C181.091 59.6743 178.781 60.091 176.114 60.091Z" fill="#080E07"/>
</svg> 