<svg width="213" height="44" viewBox="0 0 213 44" fill="none" xmlns="http://www.w3.org/2000/svg"><path d="M0 0h28.022v43.4H0V0Zm30 43V0h183v43H30Z" fill="#080E07"/><path d="M6.151 41.69V1.827h4.068V41.69H6.151Zm6.931-.116V1.709h10.839V5.3h-6.77v11.957h5.879v3.472h-5.88v20.845h-4.068ZM37.064 7.2h2.03V17h-2.03V7.2Zm10.513 6.16v-1.596h4.83a6.297 6.297 0 0 1-.266 2.114 4.87 4.87 0 0 1-.938 1.764c-.42.504-.943.9-1.568 1.19-.626.29-1.34.434-2.142.434a5.713 5.713 0 0 1-2.1-.378 5.088 5.088 0 0 1-1.666-1.064 4.847 4.847 0 0 1-1.092-1.638 5.604 5.604 0 0 1-.378-2.086c0-.756.13-1.447.392-2.072a4.768 4.768 0 0 1 1.12-1.624 4.987 4.987 0 0 1 1.68-1.036 5.909 5.909 0 0 1 2.1-.364c.672 0 1.274.093 1.806.28a4.6 4.6 0 0 1 1.428.784c.42.327.779.719 1.078 1.176l-1.708.994a2.79 2.79 0 0 0-1.022-1.036c-.43-.27-.957-.406-1.582-.406-.588 0-1.125.135-1.61.406-.486.261-.873.64-1.162 1.134-.28.495-.42 1.083-.42 1.764 0 .672.14 1.265.42 1.778.28.504.658.896 1.134 1.176.485.28 1.03.42 1.638.42.4 0 .76-.051 1.078-.154.317-.112.588-.266.812-.462.233-.196.429-.42.588-.672a3.15 3.15 0 0 0 .364-.826h-2.814ZM62.623 7.2h1.932v10.29l-6.972-6.566V17h-1.932V6.71l6.972 6.566V7.2Zm7.029 7.574.238-1.582h4.704l.238 1.582h-5.18Zm2.562-4.396-1.47 3.374.042.448-1.288 2.8h-2.254l4.97-10.374L77.184 17h-2.268l-1.26-2.716.028-.504-1.47-3.402Zm8.83 1.722c0 .644.144 1.209.434 1.694A3.14 3.14 0 0 0 82.64 14.9a3.27 3.27 0 0 0 1.554.378c.466 0 .882-.06 1.246-.182.364-.121.69-.285.98-.49.298-.205.555-.43.77-.672v2.254c-.402.317-.84.565-1.316.742-.467.177-1.06.266-1.778.266a5.867 5.867 0 0 1-2.086-.364 4.906 4.906 0 0 1-1.666-1.05 4.918 4.918 0 0 1-1.092-1.61 5.495 5.495 0 0 1-.378-2.072c0-.756.126-1.442.378-2.058a4.881 4.881 0 0 1 1.092-1.624 4.905 4.905 0 0 1 1.666-1.05 5.868 5.868 0 0 1 2.086-.364c.718 0 1.311.089 1.778.266.476.177.914.425 1.316.742v2.254a4.187 4.187 0 0 0-.77-.672 3.706 3.706 0 0 0-.98-.49 3.934 3.934 0 0 0-1.246-.182c-.56 0-1.078.13-1.554.392a3.03 3.03 0 0 0-1.162 1.092c-.29.476-.434 1.04-.434 1.694Zm9.748-4.9h2.03V17h-2.03V7.2Zm7.306 4.9c0 .625.131 1.18.392 1.666a2.98 2.98 0 0 0 1.078 1.148c.458.28.99.42 1.596.42.607 0 1.139-.14 1.596-.42.458-.28.812-.663 1.064-1.148.262-.485.392-1.04.392-1.666 0-.625-.126-1.18-.378-1.666a2.864 2.864 0 0 0-1.064-1.148c-.457-.28-.994-.42-1.61-.42-.606 0-1.138.14-1.596.42a2.97 2.97 0 0 0-1.078 1.148c-.261.485-.392 1.04-.392 1.666Zm-2.114 0c0-.747.131-1.428.392-2.044a4.884 4.884 0 0 1 1.092-1.624 4.788 4.788 0 0 1 1.638-1.05 5.526 5.526 0 0 1 2.058-.378c.747 0 1.433.126 2.058.378a4.775 4.775 0 0 1 1.638 1.05c.476.457.84.999 1.092 1.624.262.616.392 1.297.392 2.044a5.34 5.34 0 0 1-.392 2.058 4.854 4.854 0 0 1-1.078 1.638 4.84 4.84 0 0 1-1.638 1.092 5.494 5.494 0 0 1-2.072.378 5.602 5.602 0 0 1-2.086-.378 5.038 5.038 0 0 1-1.638-1.092 4.86 4.86 0 0 1-1.078-1.638 5.526 5.526 0 0 1-.378-2.058Zm20.613-3.15V7.2h4.382v1.75h-4.382Zm0 3.864v-1.666h4.242v1.666h-4.242ZM115.309 7.2h1.932V17h-1.932V7.2Zm10.404 9.8v-1.694h4.942V17h-4.942Zm0-8.106V7.2h4.942v1.694h-4.942Zm0 3.738v-1.666h4.662v1.666h-4.662ZM124.425 7.2h1.932V17h-1.932V7.2Zm12.039 5.236h2.114L141.77 17h-2.366l-2.94-4.564ZM134.238 7.2h2.002V17h-2.002V7.2Zm1.218 1.708V7.2h2.072c.775 0 1.433.13 1.974.392.542.261.957.625 1.246 1.092.29.467.434 1.013.434 1.638 0 .616-.144 1.162-.434 1.638-.289.467-.704.83-1.246 1.092-.541.261-1.199.392-1.974.392h-2.072v-1.596h1.946c.355 0 .658-.056.91-.168a1.4 1.4 0 0 0 .602-.504c.14-.224.21-.49.21-.798 0-.308-.07-.57-.21-.784a1.282 1.282 0 0 0-.602-.504c-.252-.121-.555-.182-.91-.182h-1.946ZM151.502 7.2h1.932v10.29l-6.972-6.566V17h-1.932V6.71l6.972 6.566V7.2Zm7.029 7.574.238-1.582h4.704l.238 1.582h-5.18Zm2.562-4.396-1.47 3.374.042.448-1.288 2.8h-2.254l4.97-10.374L166.063 17h-2.268l-1.26-2.716.028-.504-1.47-3.402Zm2.086-6.692-2.52 2.1-1.022-.546 2.1-2.24 1.442.686ZM175.708 7.2h1.932v10.29l-6.972-6.566V17h-1.932V6.71l6.972 6.566V7.2Zm5.671 0h2.044V17h-2.044V7.2Zm3.332 9.8h-2.044v-1.82h1.974c.43 0 .836-.056 1.218-.168a2.801 2.801 0 0 0 1.008-.56c.29-.252.514-.57.672-.952.168-.392.252-.859.252-1.4 0-.541-.084-1.003-.252-1.386a2.485 2.485 0 0 0-.672-.966 2.64 2.64 0 0 0-1.008-.546 4 4 0 0 0-1.218-.182h-1.974V7.2h2.044c1.027 0 1.923.2 2.688.602.775.401 1.377.97 1.806 1.708.43.728.644 1.591.644 2.59 0 .999-.214 1.867-.644 2.604a4.391 4.391 0 0 1-1.806 1.694c-.765.401-1.661.602-2.688.602Zm9.588 0v-1.694h4.942V17h-4.942Zm0-8.106V7.2h4.942v1.694h-4.942Zm0 3.738v-1.666h4.662v1.666h-4.662ZM193.011 7.2h1.932V17h-1.932V7.2Zm9.449 1.806V7.2h7.434l-4.802 8.05h4.368V17h-7.546l4.746-7.994h-4.2ZM35.02 38.064c.13.14.294.252.49.336.196.093.406.14.63.14.215 0 .42-.089.616-.266.205-.177.308-.48.308-.91V27.2h2.1v10.584c0 .439-.075.812-.224 1.12-.14.317-.345.574-.616.77-.261.205-.57.355-.924.448-.345.093-.719.14-1.12.14-.327 0-.64-.042-.938-.126a4.8 4.8 0 0 1-.812-.294 3.281 3.281 0 0 1-.588-.336l1.078-1.442ZM42.829 27.2h2.002v6.454c0 .56.144 1.013.434 1.358.298.336.737.504 1.316.504.578 0 1.012-.168 1.302-.504.298-.345.448-.798.448-1.358V27.2h2.002v6.58c0 .579-.094 1.087-.28 1.526a2.982 2.982 0 0 1-.798 1.106 3.315 3.315 0 0 1-1.19.672 4.497 4.497 0 0 1-1.484.238c-.542 0-1.041-.08-1.498-.238a3.316 3.316 0 0 1-1.19-.672 3.059 3.059 0 0 1-.784-1.106c-.187-.439-.28-.947-.28-1.526V27.2Zm18.126 0h1.932v10.29l-6.972-6.566V37h-1.932V26.71l6.972 6.566V27.2Zm5.671 0h2.03V37h-2.03v-9.8Zm7.307 4.9c0 .625.13 1.18.392 1.666.261.485.62.868 1.078 1.148.457.28.99.42 1.596.42.607 0 1.139-.14 1.596-.42a2.87 2.87 0 0 0 1.064-1.148c.261-.485.392-1.04.392-1.666 0-.625-.126-1.18-.378-1.666a2.87 2.87 0 0 0-1.064-1.148c-.457-.28-.994-.42-1.61-.42-.607 0-1.139.14-1.596.42a2.97 2.97 0 0 0-1.078 1.148c-.261.485-.392 1.04-.392 1.666Zm-2.114 0c0-.747.13-1.428.392-2.044a4.881 4.881 0 0 1 1.092-1.624 4.789 4.789 0 0 1 1.638-1.05 5.526 5.526 0 0 1 2.058-.378c.747 0 1.433.126 2.058.378a4.789 4.789 0 0 1 1.638 1.05c.476.457.84.999 1.092 1.624.261.616.392 1.297.392 2.044 0 .737-.13 1.423-.392 2.058a4.859 4.859 0 0 1-1.078 1.638 4.847 4.847 0 0 1-1.638 1.092 5.495 5.495 0 0 1-2.072.378 5.604 5.604 0 0 1-2.086-.378 5.038 5.038 0 0 1-1.638-1.092 4.859 4.859 0 0 1-1.078-1.638 5.526 5.526 0 0 1-.378-2.058Zm15.744.336h2.114L92.869 37h-2.366l-2.94-4.564ZM85.337 27.2h2.002V37h-2.002v-9.8Zm1.218 1.708V27.2h2.072c.774 0 1.432.13 1.974.392.541.261.956.625 1.246 1.092.289.467.434 1.013.434 1.638 0 .616-.145 1.162-.434 1.638-.29.467-.705.83-1.246 1.092-.542.261-1.2.392-1.974.392h-2.072v-1.596H88.5c.354 0 .658-.056.91-.168.261-.121.462-.29.602-.504.14-.224.21-.49.21-.798 0-.308-.07-.57-.21-.784a1.285 1.285 0 0 0-.602-.504c-.252-.121-.556-.182-.91-.182h-1.946Zm14.881-1.708h2.044V37h-2.044v-9.8Zm3.332 9.8h-2.044v-1.82h1.974c.429 0 .835-.056 1.218-.168a2.818 2.818 0 0 0 1.008-.56c.289-.252.513-.57.672-.952.168-.392.252-.859.252-1.4 0-.541-.084-1.003-.252-1.386a2.506 2.506 0 0 0-.672-.966 2.655 2.655 0 0 0-1.008-.546 4.01 4.01 0 0 0-1.218-.182h-1.974V27.2h2.044c1.026 0 1.922.2 2.688.602a4.37 4.37 0 0 1 1.806 1.708c.429.728.644 1.591.644 2.59 0 .999-.215 1.867-.644 2.604a4.404 4.404 0 0 1-1.806 1.694c-.766.401-1.662.602-2.688.602Zm9.587 0v-1.694h4.942V37h-4.942Zm0-8.106V27.2h4.942v1.694h-4.942Zm0 3.738v-1.666h4.662v1.666h-4.662Zm-1.288-5.432h1.932V37h-1.932v-9.8Zm13.733 6.384 2.646-6.384h2.324l-4.97 10.374-4.97-10.374h2.31l2.66 6.384ZM135.731 37v-1.694h4.942V37h-4.942Zm0-8.106V27.2h4.942v1.694h-4.942Zm0 3.738v-1.666h4.662v1.666h-4.662Zm-1.288-5.432h1.932V37h-1.932v-9.8Zm9.813 0h2.002v8.05h3.906V37h-5.908v-9.8Zm9.795 4.9c0 .625.131 1.18.392 1.666a2.98 2.98 0 0 0 1.078 1.148c.458.28.99.42 1.596.42.607 0 1.139-.14 1.596-.42.458-.28.812-.663 1.064-1.148.262-.485.392-1.04.392-1.666 0-.625-.126-1.18-.378-1.666a2.864 2.864 0 0 0-1.064-1.148c-.457-.28-.994-.42-1.61-.42-.606 0-1.138.14-1.596.42a2.98 2.98 0 0 0-1.078 1.148c-.261.485-.392 1.04-.392 1.666Zm-2.114 0c0-.747.131-1.428.392-2.044a4.795 4.795 0 0 1 2.73-2.674 5.529 5.529 0 0 1 2.058-.378c.747 0 1.433.126 2.058.378a4.776 4.776 0 0 1 1.638 1.05c.476.457.84.999 1.092 1.624.262.616.392 1.297.392 2.044a5.34 5.34 0 0 1-.392 2.058 4.854 4.854 0 0 1-1.078 1.638 4.84 4.84 0 0 1-1.638 1.092 5.494 5.494 0 0 1-2.072.378 5.605 5.605 0 0 1-2.086-.378 5.045 5.045 0 0 1-1.638-1.092 4.87 4.87 0 0 1-1.078-1.638 5.526 5.526 0 0 1-.378-2.058Zm13.518-4.9h2.002V37h-2.002v-9.8Zm1.218 1.694V27.2h1.946c.775 0 1.433.126 1.974.378.551.252.971.611 1.26 1.078.289.467.434 1.022.434 1.666 0 .635-.145 1.19-.434 1.666-.289.467-.709.826-1.26 1.078-.541.252-1.199.378-1.974.378h-1.946V31.75h1.946c.532 0 .952-.121 1.26-.364.308-.243.462-.597.462-1.064 0-.476-.154-.83-.462-1.064-.308-.243-.728-.364-1.26-.364h-1.946ZM176.734 37v-1.694h4.942V37h-4.942Zm0-8.106V27.2h4.942v1.694h-4.942Zm0 3.738v-1.666h4.662v1.666h-4.662Zm-1.288-5.432h1.932V37h-1.932v-9.8Zm12.039 5.236h2.114L192.791 37h-2.366l-2.94-4.564Zm-2.226-5.236h2.002V37h-2.002v-9.8Zm1.218 1.708V27.2h2.072c.775 0 1.433.13 1.974.392.541.261.957.625 1.246 1.092.289.467.434 1.013.434 1.638 0 .616-.145 1.162-.434 1.638-.289.467-.705.83-1.246 1.092-.541.261-1.199.392-1.974.392h-2.072v-1.596h1.946c.355 0 .658-.056.91-.168.261-.121.462-.29.602-.504.14-.224.21-.49.21-.798 0-.308-.07-.57-.21-.784a1.287 1.287 0 0 0-.602-.504c-.252-.121-.555-.182-.91-.182h-1.946Z" fill="#D3350D"/></svg>